<mxfile host="app.diagrams.net" modified="2023-12-02T07:38:43.729Z" agent="Mozilla/5.0 (Windows NT 10.0; Win64; x64) AppleWebKit/537.36 (KHTML, like Gecko) Chrome/120.0.0.0 Safari/537.36 Edg/120.0.0.0" etag="2UijF5BnTWLDluH16WHs" version="22.1.5" type="device" pages="2">
  <diagram name="第 1 页" id="doLuzYWz9Yg-y-m_CZKs">
    <mxGraphModel dx="2090" dy="2692" grid="1" gridSize="10" guides="1" tooltips="1" connect="1" arrows="1" fold="1" page="1" pageScale="1" pageWidth="827" pageHeight="1169" math="0" shadow="0">
      <root>
        <mxCell id="0" />
        <mxCell id="1" parent="0" />
        <mxCell id="7KZXkn5E7-hq3waVyWaM-28" value="" style="group" parent="1" vertex="1" connectable="0">
          <mxGeometry x="263" y="-1109" width="1080" height="320" as="geometry" />
        </mxCell>
        <mxCell id="7KZXkn5E7-hq3waVyWaM-29" style="edgeStyle=orthogonalEdgeStyle;rounded=0;orthogonalLoop=1;jettySize=auto;html=1;entryX=-0.002;entryY=0.37;entryDx=0;entryDy=0;endArrow=none;endFill=0;strokeWidth=2;fillColor=#d5e8d4;strokeColor=#7EA6E0;exitX=0.5;exitY=0;exitDx=0;exitDy=0;entryPerimeter=0;" parent="7KZXkn5E7-hq3waVyWaM-28" source="7KZXkn5E7-hq3waVyWaM-36" target="7KZXkn5E7-hq3waVyWaM-41" edge="1">
          <mxGeometry relative="1" as="geometry">
            <mxPoint x="143" y="290" as="sourcePoint" />
            <mxPoint x="470" y="80" as="targetPoint" />
          </mxGeometry>
        </mxCell>
        <mxCell id="7KZXkn5E7-hq3waVyWaM-30" style="edgeStyle=orthogonalEdgeStyle;rounded=0;orthogonalLoop=1;jettySize=auto;html=1;endArrow=none;endFill=0;strokeWidth=2;fillColor=#d5e8d4;strokeColor=#0066CC;exitX=0.5;exitY=0;exitDx=0;exitDy=0;entryX=0;entryY=0.5;entryDx=0;entryDy=0;" parent="7KZXkn5E7-hq3waVyWaM-28" source="7KZXkn5E7-hq3waVyWaM-35" target="7KZXkn5E7-hq3waVyWaM-40" edge="1">
          <mxGeometry relative="1" as="geometry">
            <mxPoint x="410" y="290" as="sourcePoint" />
            <mxPoint x="415" y="165" as="targetPoint" />
          </mxGeometry>
        </mxCell>
        <mxCell id="7KZXkn5E7-hq3waVyWaM-31" style="edgeStyle=orthogonalEdgeStyle;rounded=0;orthogonalLoop=1;jettySize=auto;html=1;entryX=-0.001;entryY=0.374;entryDx=0;entryDy=0;endArrow=none;endFill=0;strokeWidth=2;fillColor=#d5e8d4;strokeColor=#004C99;exitX=0.5;exitY=0;exitDx=0;exitDy=0;entryPerimeter=0;" parent="7KZXkn5E7-hq3waVyWaM-28" source="7KZXkn5E7-hq3waVyWaM-34" target="7KZXkn5E7-hq3waVyWaM-42" edge="1">
          <mxGeometry relative="1" as="geometry">
            <mxPoint x="420" y="300" as="sourcePoint" />
            <mxPoint x="480" y="245" as="targetPoint" />
          </mxGeometry>
        </mxCell>
        <mxCell id="7KZXkn5E7-hq3waVyWaM-32" value="&lt;font style=&quot;font-size: 28px;&quot;&gt;pull&lt;/font&gt;" style="text;html=1;strokeColor=#82b366;fillColor=#d5e8d4;align=center;verticalAlign=middle;whiteSpace=wrap;rounded=0;" parent="7KZXkn5E7-hq3waVyWaM-28" vertex="1">
          <mxGeometry x="100" y="280" width="66" height="40" as="geometry" />
        </mxCell>
        <mxCell id="7KZXkn5E7-hq3waVyWaM-33" value="&lt;font style=&quot;font-size: 28px;&quot;&gt;docker&lt;/font&gt;" style="text;html=1;strokeColor=#d79b00;fillColor=#ffe6cc;align=center;verticalAlign=middle;whiteSpace=wrap;rounded=0;" parent="7KZXkn5E7-hq3waVyWaM-28" vertex="1">
          <mxGeometry y="280" width="100" height="40" as="geometry" />
        </mxCell>
        <mxCell id="7KZXkn5E7-hq3waVyWaM-34" value="&lt;font style=&quot;font-size: 28px;&quot;&gt;hcp4715&lt;/font&gt;" style="text;html=1;strokeColor=#6c8ebf;fillColor=#7EA6E0;align=center;verticalAlign=middle;whiteSpace=wrap;rounded=0;fillStyle=auto;" parent="7KZXkn5E7-hq3waVyWaM-28" vertex="1">
          <mxGeometry x="166" y="280" width="112" height="40" as="geometry" />
        </mxCell>
        <mxCell id="7KZXkn5E7-hq3waVyWaM-35" value="&lt;font style=&quot;font-size: 28px;&quot;&gt;/hddm&lt;/font&gt;" style="text;html=1;strokeColor=#6c8ebf;fillColor=#A9C4EB;align=center;verticalAlign=middle;whiteSpace=wrap;rounded=0;" parent="7KZXkn5E7-hq3waVyWaM-28" vertex="1">
          <mxGeometry x="278" y="280" width="89" height="40" as="geometry" />
        </mxCell>
        <mxCell id="7KZXkn5E7-hq3waVyWaM-36" value="&lt;font style=&quot;font-size: 28px;&quot;&gt;:latest&lt;/font&gt;" style="text;html=1;strokeColor=#6c8ebf;fillColor=#D4E1F5;align=center;verticalAlign=middle;whiteSpace=wrap;rounded=0;" parent="7KZXkn5E7-hq3waVyWaM-28" vertex="1">
          <mxGeometry x="367" y="280" width="80" height="40" as="geometry" />
        </mxCell>
        <mxCell id="7KZXkn5E7-hq3waVyWaM-38" style="edgeStyle=orthogonalEdgeStyle;rounded=0;orthogonalLoop=1;jettySize=auto;html=1;exitX=0.5;exitY=0;exitDx=0;exitDy=0;entryX=-0.001;entryY=0.363;entryDx=0;entryDy=0;entryPerimeter=0;endArrow=none;endFill=0;strokeWidth=2;fillColor=#ffe6cc;strokeColor=#d79b00;" parent="7KZXkn5E7-hq3waVyWaM-28" source="7KZXkn5E7-hq3waVyWaM-33" target="7KZXkn5E7-hq3waVyWaM-37" edge="1">
          <mxGeometry relative="1" as="geometry" />
        </mxCell>
        <mxCell id="7KZXkn5E7-hq3waVyWaM-43" style="edgeStyle=orthogonalEdgeStyle;rounded=0;orthogonalLoop=1;jettySize=auto;html=1;entryX=0;entryY=0.403;entryDx=0;entryDy=0;endArrow=none;endFill=0;strokeWidth=2;fillColor=#d5e8d4;strokeColor=#82b366;exitX=0.5;exitY=0;exitDx=0;exitDy=0;entryPerimeter=0;" parent="7KZXkn5E7-hq3waVyWaM-28" source="7KZXkn5E7-hq3waVyWaM-32" target="7KZXkn5E7-hq3waVyWaM-39" edge="1">
          <mxGeometry relative="1" as="geometry">
            <mxPoint x="150" y="270" as="sourcePoint" />
            <mxPoint x="470" y="28" as="targetPoint" />
          </mxGeometry>
        </mxCell>
        <mxCell id="7KZXkn5E7-hq3waVyWaM-37" value="&lt;div style=&quot;font-size: 26px;&quot;&gt;&lt;span style=&quot;font-size: 26px; font-family: &amp;quot;Times New Roman&amp;quot;; color: rgb(180, 95, 6);&quot;&gt;Using docker to execute this command&lt;/span&gt;&lt;/div&gt;" style="text;whiteSpace=wrap;html=1;strokeWidth=3;fontSize=26;" parent="7KZXkn5E7-hq3waVyWaM-28" vertex="1">
          <mxGeometry x="547" width="456.02500000000003" height="50" as="geometry" />
        </mxCell>
        <mxCell id="7KZXkn5E7-hq3waVyWaM-39" value="&lt;div style=&quot;font-size: 26px;&quot;&gt;&lt;span style=&quot;font-size: 26px; font-family: &amp;quot;Times New Roman&amp;quot;; color: rgb(56, 118, 29);&quot;&gt;Pull/download an image from docker hub&#xa;&lt;/span&gt;&lt;/div&gt;" style="text;whiteSpace=wrap;html=1;strokeWidth=3;fontSize=26;" parent="7KZXkn5E7-hq3waVyWaM-28" vertex="1">
          <mxGeometry x="547" y="50" width="493" height="50" as="geometry" />
        </mxCell>
        <mxCell id="7KZXkn5E7-hq3waVyWaM-40" value="&lt;div style=&quot;font-size: 26px;&quot;&gt;&lt;/div&gt;&lt;font face=&quot;Times New Roman&quot; color=&quot;#1155cc&quot; style=&quot;font-size: 26px;&quot;&gt;&lt;span style=&quot;font-size: 26px;&quot;&gt;Image&#39;s name&lt;br style=&quot;font-size: 26px;&quot;&gt;&lt;/span&gt;&lt;/font&gt;" style="text;whiteSpace=wrap;html=1;strokeWidth=3;fontSize=26;" parent="7KZXkn5E7-hq3waVyWaM-28" vertex="1">
          <mxGeometry x="547" y="150" width="172.55" height="50" as="geometry" />
        </mxCell>
        <mxCell id="7KZXkn5E7-hq3waVyWaM-41" value="&lt;div style=&quot;font-size: 26px;&quot;&gt;&lt;/div&gt;&lt;font face=&quot;Times New Roman&quot; color=&quot;#3c78d8&quot; style=&quot;font-size: 26px;&quot;&gt;&lt;span style=&quot;font-size: 26px;&quot;&gt;Handle of a tag of the image&lt;br style=&quot;font-size: 26px;&quot;&gt;&lt;/span&gt;&lt;/font&gt;" style="text;whiteSpace=wrap;html=1;strokeWidth=3;fontSize=26;" parent="7KZXkn5E7-hq3waVyWaM-28" vertex="1">
          <mxGeometry x="547" y="210" width="332.775" height="50" as="geometry" />
        </mxCell>
        <mxCell id="7KZXkn5E7-hq3waVyWaM-42" value="&lt;div style=&quot;font-size: 26px;&quot;&gt;&lt;/div&gt;&lt;font face=&quot;Times New Roman&quot; color=&quot;#0b5394&quot; style=&quot;font-size: 26px;&quot;&gt;&lt;span style=&quot;font-size: 26px;&quot;&gt;Docker hub account that maintain the image&lt;/span&gt;&lt;/font&gt;" style="text;whiteSpace=wrap;html=1;strokeWidth=3;fontSize=26;" parent="7KZXkn5E7-hq3waVyWaM-28" vertex="1">
          <mxGeometry x="547" y="100" width="480.675" height="50" as="geometry" />
        </mxCell>
        <mxCell id="7KZXkn5E7-hq3waVyWaM-44" value="&lt;font style=&quot;font-size: 40px;&quot;&gt;A&lt;/font&gt;" style="text;html=1;strokeColor=none;fillColor=none;align=center;verticalAlign=middle;whiteSpace=wrap;rounded=0;" parent="1" vertex="1">
          <mxGeometry x="199" y="-1129" width="60" height="30" as="geometry" />
        </mxCell>
        <mxCell id="7KZXkn5E7-hq3waVyWaM-45" value="&lt;font style=&quot;font-size: 40px;&quot;&gt;B&lt;/font&gt;" style="text;html=1;strokeColor=none;fillColor=none;align=center;verticalAlign=middle;whiteSpace=wrap;rounded=0;" parent="1" vertex="1">
          <mxGeometry x="199" y="-763" width="60" height="30" as="geometry" />
        </mxCell>
        <mxCell id="4uHmGXiafPb-5T5qEEpo-4" value="" style="group" parent="1" vertex="1" connectable="0">
          <mxGeometry x="238" y="-738" width="1116" height="587" as="geometry" />
        </mxCell>
        <mxCell id="7KZXkn5E7-hq3waVyWaM-9" value="&lt;font style=&quot;font-size: 28px;&quot;&gt;run&lt;/font&gt;" style="text;html=1;strokeColor=#82b366;fillColor=#d5e8d4;align=center;verticalAlign=middle;whiteSpace=wrap;rounded=0;" parent="4uHmGXiafPb-5T5qEEpo-4" vertex="1">
          <mxGeometry x="100" y="269" width="60" height="40" as="geometry" />
        </mxCell>
        <mxCell id="7KZXkn5E7-hq3waVyWaM-10" value="&lt;font style=&quot;font-size: 28px;&quot;&gt;docker&lt;/font&gt;" style="text;html=1;strokeColor=#d79b00;fillColor=#ffe6cc;align=center;verticalAlign=middle;whiteSpace=wrap;rounded=0;" parent="4uHmGXiafPb-5T5qEEpo-4" vertex="1">
          <mxGeometry y="269" width="100" height="40" as="geometry" />
        </mxCell>
        <mxCell id="7KZXkn5E7-hq3waVyWaM-11" value="&lt;font style=&quot;font-size: 28px;&quot;&gt;hcp4715/hddm:latest&lt;/font&gt;" style="text;html=1;strokeColor=#6c8ebf;fillColor=#7EA6E0;align=center;verticalAlign=middle;whiteSpace=wrap;rounded=0;fillStyle=auto;" parent="4uHmGXiafPb-5T5qEEpo-4" vertex="1">
          <mxGeometry x="261" y="309" width="289" height="40" as="geometry" />
        </mxCell>
        <mxCell id="7KZXkn5E7-hq3waVyWaM-12" value="&lt;font style=&quot;font-size: 28px;&quot;&gt;jupyter notebook&lt;/font&gt;" style="text;html=1;strokeColor=#9673a6;fillColor=#e1d5e7;align=center;verticalAlign=middle;whiteSpace=wrap;rounded=0;" parent="4uHmGXiafPb-5T5qEEpo-4" vertex="1">
          <mxGeometry x="543" y="309" width="222" height="40" as="geometry" />
        </mxCell>
        <mxCell id="7KZXkn5E7-hq3waVyWaM-13" value="&lt;font style=&quot;font-size: 28px;&quot;&gt;\&lt;/font&gt;" style="text;html=1;strokeColor=#314354;fillColor=#647687;align=center;verticalAlign=middle;whiteSpace=wrap;rounded=0;fontColor=#ffffff;" parent="4uHmGXiafPb-5T5qEEpo-4" vertex="1">
          <mxGeometry x="736" y="269" width="29" height="40" as="geometry" />
        </mxCell>
        <mxCell id="7KZXkn5E7-hq3waVyWaM-14" value="&lt;div style=&quot;font-size: 26px;&quot;&gt;&lt;/div&gt;&lt;font face=&quot;Times New Roman&quot; color=&quot;#38761d&quot; style=&quot;font-size: 26px;&quot;&gt;&lt;span style=&quot;font-size: 26px;&quot;&gt;Run a container&lt;br style=&quot;font-size: 26px;&quot;&gt;&lt;/span&gt;&lt;/font&gt;" style="text;whiteSpace=wrap;html=1;fontSize=26;align=left;horizontal=1;verticalAlign=middle;" parent="4uHmGXiafPb-5T5qEEpo-4" vertex="1">
          <mxGeometry x="776" width="194" height="34" as="geometry" />
        </mxCell>
        <mxCell id="7KZXkn5E7-hq3waVyWaM-3" style="edgeStyle=orthogonalEdgeStyle;rounded=0;orthogonalLoop=1;jettySize=auto;html=1;entryX=0;entryY=0.5;entryDx=0;entryDy=0;endArrow=none;endFill=0;strokeWidth=2;fillColor=#d5e8d4;strokeColor=#82b366;exitX=0.5;exitY=0;exitDx=0;exitDy=0;" parent="4uHmGXiafPb-5T5qEEpo-4" source="7KZXkn5E7-hq3waVyWaM-9" target="7KZXkn5E7-hq3waVyWaM-14" edge="1">
          <mxGeometry relative="1" as="geometry">
            <mxPoint x="151" y="259" as="sourcePoint" />
            <mxPoint x="471" y="17" as="targetPoint" />
          </mxGeometry>
        </mxCell>
        <mxCell id="7KZXkn5E7-hq3waVyWaM-15" value="&lt;font style=&quot;font-size: 28px;&quot;&gt;-it&amp;nbsp; --rm&lt;/font&gt;" style="text;html=1;strokeColor=#b85450;fillColor=#F19C99;align=center;verticalAlign=middle;whiteSpace=wrap;rounded=0;" parent="4uHmGXiafPb-5T5qEEpo-4" vertex="1">
          <mxGeometry x="160" y="309" width="101" height="40" as="geometry" />
        </mxCell>
        <mxCell id="7KZXkn5E7-hq3waVyWaM-16" value="" style="group" parent="4uHmGXiafPb-5T5qEEpo-4" vertex="1" connectable="0">
          <mxGeometry x="544" y="269" width="192" height="40" as="geometry" />
        </mxCell>
        <mxCell id="7KZXkn5E7-hq3waVyWaM-17" value="&lt;font style=&quot;font-size: 28px;&quot;&gt;8888:8888&lt;/font&gt;" style="text;html=1;strokeColor=#b85450;fillColor=#f8cecc;align=center;verticalAlign=middle;whiteSpace=wrap;rounded=0;" parent="7KZXkn5E7-hq3waVyWaM-16" vertex="1">
          <mxGeometry x="40" width="152" height="40" as="geometry" />
        </mxCell>
        <mxCell id="7KZXkn5E7-hq3waVyWaM-18" value="&lt;font style=&quot;font-size: 28px;&quot;&gt;-p&lt;/font&gt;" style="text;html=1;strokeColor=#B85450;fillColor=#F19C99;align=center;verticalAlign=middle;whiteSpace=wrap;rounded=0;" parent="7KZXkn5E7-hq3waVyWaM-16" vertex="1">
          <mxGeometry width="40" height="40" as="geometry" />
        </mxCell>
        <mxCell id="7KZXkn5E7-hq3waVyWaM-19" value="" style="group" parent="4uHmGXiafPb-5T5qEEpo-4" vertex="1" connectable="0">
          <mxGeometry x="160" y="269" width="384" height="40" as="geometry" />
        </mxCell>
        <mxCell id="7KZXkn5E7-hq3waVyWaM-20" value="&lt;font style=&quot;font-size: 28px;&quot;&gt;$(pwd):/home/jovyan/work&lt;/font&gt;" style="text;html=1;strokeColor=#B85450;fillColor=#F8CECC;align=center;verticalAlign=middle;whiteSpace=wrap;rounded=0;" parent="7KZXkn5E7-hq3waVyWaM-19" vertex="1">
          <mxGeometry x="39.389999999999986" width="344.61" height="40" as="geometry" />
        </mxCell>
        <mxCell id="7KZXkn5E7-hq3waVyWaM-21" value="&lt;font style=&quot;font-size: 28px;&quot;&gt;-v&lt;/font&gt;" style="text;html=1;strokeColor=#B85450;fillColor=#F19C99;align=center;verticalAlign=middle;whiteSpace=wrap;rounded=0;" parent="7KZXkn5E7-hq3waVyWaM-19" vertex="1">
          <mxGeometry width="39.39240506329114" height="40" as="geometry" />
        </mxCell>
        <mxCell id="7KZXkn5E7-hq3waVyWaM-22" value="&lt;div style=&quot;font-size: 26px;&quot;&gt;&lt;/div&gt;&lt;font face=&quot;Times New Roman&quot; style=&quot;font-size: 26px;&quot;&gt;&lt;span style=&quot;font-size: 26px;&quot;&gt;&lt;font color=&quot;#ea6b66&quot; style=&quot;font-size: 26px;&quot;&gt;Mount a volume, &lt;br style=&quot;font-size: 26px;&quot;&gt;localPath:containerPaht&lt;/font&gt;&lt;br style=&quot;font-size: 26px;&quot;&gt;&lt;/span&gt;&lt;/font&gt;" style="text;html=1;fontSize=26;whiteSpace=wrap;verticalAlign=middle;" parent="4uHmGXiafPb-5T5qEEpo-4" vertex="1">
          <mxGeometry x="776" y="42" width="280" height="60" as="geometry" />
        </mxCell>
        <mxCell id="7KZXkn5E7-hq3waVyWaM-4" style="edgeStyle=orthogonalEdgeStyle;rounded=0;orthogonalLoop=1;jettySize=auto;html=1;entryX=0;entryY=0.5;entryDx=0;entryDy=0;exitX=0.5;exitY=0;exitDx=0;exitDy=0;strokeWidth=2;endArrow=none;endFill=0;strokeColor=#F19C99;" parent="4uHmGXiafPb-5T5qEEpo-4" source="7KZXkn5E7-hq3waVyWaM-20" target="7KZXkn5E7-hq3waVyWaM-22" edge="1">
          <mxGeometry relative="1" as="geometry">
            <mxPoint x="765" y="279" as="sourcePoint" />
            <mxPoint x="811" y="185" as="targetPoint" />
          </mxGeometry>
        </mxCell>
        <mxCell id="7KZXkn5E7-hq3waVyWaM-23" value="&lt;div style=&quot;font-size: 26px;&quot;&gt;&lt;/div&gt;&lt;font face=&quot;Times New Roman&quot; style=&quot;font-size: 26px;&quot;&gt;&lt;span style=&quot;font-size: 26px;&quot;&gt;&lt;font color=&quot;#ea6b66&quot; style=&quot;font-size: 26px;&quot;&gt;Map container port,&amp;nbsp;&lt;br style=&quot;font-size: 26px;&quot;&gt;hostPost:containerPort&lt;/font&gt;&lt;br style=&quot;font-size: 26px;&quot;&gt;&lt;/span&gt;&lt;/font&gt;" style="text;html=1;fontSize=26;whiteSpace=wrap;verticalAlign=middle;" parent="4uHmGXiafPb-5T5qEEpo-4" vertex="1">
          <mxGeometry x="776" y="115" width="280" height="61" as="geometry" />
        </mxCell>
        <mxCell id="7KZXkn5E7-hq3waVyWaM-5" style="edgeStyle=orthogonalEdgeStyle;rounded=0;orthogonalLoop=1;jettySize=auto;html=1;entryX=0;entryY=0.5;entryDx=0;entryDy=0;strokeWidth=2;endArrow=none;endFill=0;strokeColor=#F19C99;exitX=0.39;exitY=0.004;exitDx=0;exitDy=0;exitPerimeter=0;" parent="4uHmGXiafPb-5T5qEEpo-4" source="7KZXkn5E7-hq3waVyWaM-17" target="7KZXkn5E7-hq3waVyWaM-23" edge="1">
          <mxGeometry relative="1" as="geometry">
            <mxPoint x="651" y="219" as="sourcePoint" />
            <mxPoint x="811" y="34" as="targetPoint" />
          </mxGeometry>
        </mxCell>
        <mxCell id="7KZXkn5E7-hq3waVyWaM-24" value="&lt;div style=&quot;font-size: 26px;&quot;&gt;&lt;/div&gt;&lt;span style=&quot;background-color: initial; font-size: 26px;&quot;&gt;&lt;font color=&quot;#999999&quot; face=&quot;Times New Roman&quot; style=&quot;font-size: 26px;&quot;&gt;Continue the command in a new line*&lt;/font&gt;&lt;/span&gt;&lt;font face=&quot;Times New Roman&quot; color=&quot;#38761d&quot; style=&quot;font-size: 26px;&quot;&gt;&lt;span style=&quot;font-size: 26px;&quot;&gt;&lt;br style=&quot;font-size: 26px;&quot;&gt;&lt;/span&gt;&lt;/font&gt;" style="text;html=1;fontSize=26;whiteSpace=wrap;verticalAlign=middle;" parent="4uHmGXiafPb-5T5qEEpo-4" vertex="1">
          <mxGeometry x="776" y="185" width="260" height="63" as="geometry" />
        </mxCell>
        <mxCell id="7KZXkn5E7-hq3waVyWaM-6" style="edgeStyle=orthogonalEdgeStyle;rounded=0;orthogonalLoop=1;jettySize=auto;html=1;entryX=0;entryY=0.5;entryDx=0;entryDy=0;exitX=0.5;exitY=0;exitDx=0;exitDy=0;strokeWidth=2;endArrow=none;endFill=0;strokeColor=#666666;" parent="4uHmGXiafPb-5T5qEEpo-4" source="7KZXkn5E7-hq3waVyWaM-13" target="7KZXkn5E7-hq3waVyWaM-24" edge="1">
          <mxGeometry relative="1" as="geometry" />
        </mxCell>
        <mxCell id="7KZXkn5E7-hq3waVyWaM-25" value="&lt;div style=&quot;font-size: 26px;&quot;&gt;&lt;/div&gt;&lt;span style=&quot;background-color: initial; font-size: 26px;&quot;&gt;&lt;font color=&quot;#ea6b66&quot; face=&quot;Times New Roman&quot; style=&quot;font-size: 26px;&quot;&gt;Run container interactively&lt;/font&gt;&lt;/span&gt;&lt;font face=&quot;Times New Roman&quot; color=&quot;#ea6b66&quot;&gt;&lt;div style=&quot;&quot;&gt;Clean up containers and delete files on container exit&lt;/div&gt;&lt;/font&gt;" style="text;html=1;fontSize=26;whiteSpace=wrap;verticalAlign=middle;" parent="4uHmGXiafPb-5T5qEEpo-4" vertex="1">
          <mxGeometry x="776" y="487" width="315" height="100" as="geometry" />
        </mxCell>
        <mxCell id="7KZXkn5E7-hq3waVyWaM-2" style="edgeStyle=orthogonalEdgeStyle;rounded=0;orthogonalLoop=1;jettySize=auto;html=1;entryX=0;entryY=0.5;entryDx=0;entryDy=0;strokeWidth=2;endArrow=none;endFill=0;strokeColor=#F19C99;exitX=0.5;exitY=1;exitDx=0;exitDy=0;" parent="4uHmGXiafPb-5T5qEEpo-4" source="7KZXkn5E7-hq3waVyWaM-15" target="7KZXkn5E7-hq3waVyWaM-25" edge="1">
          <mxGeometry relative="1" as="geometry">
            <mxPoint x="656" y="278" as="sourcePoint" />
            <mxPoint x="811" y="114" as="targetPoint" />
          </mxGeometry>
        </mxCell>
        <mxCell id="7KZXkn5E7-hq3waVyWaM-26" value="&lt;div style=&quot;font-size: 26px;&quot;&gt;&lt;/div&gt;&lt;span style=&quot;background-color: initial; font-size: 26px;&quot;&gt;&lt;font color=&quot;#0066cc&quot; face=&quot;Times New Roman&quot; style=&quot;font-size: 26px;&quot;&gt;The docker image (and its tag) to run the container&lt;/font&gt;&lt;/span&gt;&lt;font face=&quot;Times New Roman&quot; color=&quot;#38761d&quot; style=&quot;font-size: 26px;&quot;&gt;&lt;span style=&quot;font-size: 26px;&quot;&gt;&lt;br style=&quot;font-size: 26px;&quot;&gt;&lt;/span&gt;&lt;/font&gt;" style="text;html=1;fontSize=26;whiteSpace=wrap;verticalAlign=middle;" parent="4uHmGXiafPb-5T5qEEpo-4" vertex="1">
          <mxGeometry x="776" y="414" width="340" height="67" as="geometry" />
        </mxCell>
        <mxCell id="7KZXkn5E7-hq3waVyWaM-8" style="edgeStyle=orthogonalEdgeStyle;rounded=0;orthogonalLoop=1;jettySize=auto;html=1;entryX=0;entryY=0.5;entryDx=0;entryDy=0;strokeWidth=2;endArrow=none;endFill=0;strokeColor=#A9C4EB;exitX=0.372;exitY=1.006;exitDx=0;exitDy=0;exitPerimeter=0;" parent="4uHmGXiafPb-5T5qEEpo-4" source="7KZXkn5E7-hq3waVyWaM-11" target="7KZXkn5E7-hq3waVyWaM-26" edge="1">
          <mxGeometry relative="1" as="geometry">
            <mxPoint x="226" y="360" as="sourcePoint" />
            <mxPoint x="811" y="624" as="targetPoint" />
          </mxGeometry>
        </mxCell>
        <mxCell id="7KZXkn5E7-hq3waVyWaM-27" value="&lt;div style=&quot;font-size: 26px;&quot;&gt;&lt;/div&gt;&lt;span style=&quot;background-color: initial; font-size: 26px;&quot;&gt;&lt;font color=&quot;#a680b8&quot; face=&quot;Times New Roman&quot; style=&quot;font-size: 26px;&quot;&gt;Open jupyter notebook&lt;/font&gt;&lt;/span&gt;&lt;font face=&quot;Times New Roman&quot; color=&quot;#38761d&quot; style=&quot;font-size: 26px;&quot;&gt;&lt;span style=&quot;font-size: 26px;&quot;&gt;&lt;br style=&quot;font-size: 26px;&quot;&gt;&lt;/span&gt;&lt;/font&gt;" style="text;whiteSpace=wrap;html=1;fontSize=26;verticalAlign=middle;" parent="4uHmGXiafPb-5T5qEEpo-4" vertex="1">
          <mxGeometry x="776" y="371" width="263" height="32" as="geometry" />
        </mxCell>
        <mxCell id="7KZXkn5E7-hq3waVyWaM-7" style="edgeStyle=orthogonalEdgeStyle;rounded=0;orthogonalLoop=1;jettySize=auto;html=1;entryX=0;entryY=0.5;entryDx=0;entryDy=0;strokeWidth=2;endArrow=none;endFill=0;strokeColor=#A680B8;exitX=0.447;exitY=0.998;exitDx=0;exitDy=0;exitPerimeter=0;" parent="4uHmGXiafPb-5T5qEEpo-4" source="7KZXkn5E7-hq3waVyWaM-12" target="7KZXkn5E7-hq3waVyWaM-27" edge="1">
          <mxGeometry relative="1" as="geometry">
            <mxPoint x="418" y="360" as="sourcePoint" />
            <mxPoint x="811" y="514" as="targetPoint" />
          </mxGeometry>
        </mxCell>
        <mxCell id="4uHmGXiafPb-5T5qEEpo-2" style="edgeStyle=orthogonalEdgeStyle;rounded=0;orthogonalLoop=1;jettySize=auto;html=1;exitX=0.5;exitY=1;exitDx=0;exitDy=0;" parent="4uHmGXiafPb-5T5qEEpo-4" source="7KZXkn5E7-hq3waVyWaM-14" target="7KZXkn5E7-hq3waVyWaM-14" edge="1">
          <mxGeometry relative="1" as="geometry" />
        </mxCell>
      </root>
    </mxGraphModel>
  </diagram>
  <diagram id="sZOYv9LtjJUvTkebNaMB" name="第 2 页">
    <mxGraphModel dx="2787" dy="3199" grid="1" gridSize="10" guides="1" tooltips="1" connect="1" arrows="1" fold="1" page="1" pageScale="1" pageWidth="827" pageHeight="1169" math="0" shadow="0">
      <root>
        <mxCell id="0" />
        <mxCell id="1" parent="0" />
        <mxCell id="pv3OxFPJGP5YhFgGYeKH-1" value="" style="group" vertex="1" connectable="0" parent="1">
          <mxGeometry x="263" y="-1140" width="1080" height="320" as="geometry" />
        </mxCell>
        <mxCell id="pv3OxFPJGP5YhFgGYeKH-2" style="edgeStyle=orthogonalEdgeStyle;rounded=0;orthogonalLoop=1;jettySize=auto;html=1;entryX=-0.002;entryY=0.37;entryDx=0;entryDy=0;endArrow=none;endFill=0;strokeWidth=2;fillColor=#d5e8d4;strokeColor=#7EA6E0;exitX=0.5;exitY=0;exitDx=0;exitDy=0;entryPerimeter=0;" edge="1" parent="pv3OxFPJGP5YhFgGYeKH-1" source="pv3OxFPJGP5YhFgGYeKH-9" target="pv3OxFPJGP5YhFgGYeKH-15">
          <mxGeometry relative="1" as="geometry">
            <mxPoint x="143" y="290" as="sourcePoint" />
            <mxPoint x="470" y="80" as="targetPoint" />
          </mxGeometry>
        </mxCell>
        <mxCell id="pv3OxFPJGP5YhFgGYeKH-3" style="edgeStyle=orthogonalEdgeStyle;rounded=0;orthogonalLoop=1;jettySize=auto;html=1;endArrow=none;endFill=0;strokeWidth=2;fillColor=#d5e8d4;strokeColor=#0066CC;exitX=0.5;exitY=0;exitDx=0;exitDy=0;entryX=0;entryY=0.5;entryDx=0;entryDy=0;" edge="1" parent="pv3OxFPJGP5YhFgGYeKH-1" source="pv3OxFPJGP5YhFgGYeKH-8" target="pv3OxFPJGP5YhFgGYeKH-14">
          <mxGeometry relative="1" as="geometry">
            <mxPoint x="410" y="290" as="sourcePoint" />
            <mxPoint x="415" y="165" as="targetPoint" />
          </mxGeometry>
        </mxCell>
        <mxCell id="pv3OxFPJGP5YhFgGYeKH-4" style="edgeStyle=orthogonalEdgeStyle;rounded=0;orthogonalLoop=1;jettySize=auto;html=1;entryX=-0.001;entryY=0.374;entryDx=0;entryDy=0;endArrow=none;endFill=0;strokeWidth=2;fillColor=#d5e8d4;strokeColor=#004C99;exitX=0.5;exitY=0;exitDx=0;exitDy=0;entryPerimeter=0;" edge="1" parent="pv3OxFPJGP5YhFgGYeKH-1" source="pv3OxFPJGP5YhFgGYeKH-7" target="pv3OxFPJGP5YhFgGYeKH-16">
          <mxGeometry relative="1" as="geometry">
            <mxPoint x="420" y="300" as="sourcePoint" />
            <mxPoint x="480" y="245" as="targetPoint" />
          </mxGeometry>
        </mxCell>
        <mxCell id="pv3OxFPJGP5YhFgGYeKH-5" value="&lt;font style=&quot;font-size: 28px;&quot;&gt;pull&lt;/font&gt;" style="text;html=1;strokeColor=#82b366;fillColor=#d5e8d4;align=center;verticalAlign=middle;whiteSpace=wrap;rounded=0;" vertex="1" parent="pv3OxFPJGP5YhFgGYeKH-1">
          <mxGeometry x="101" y="280" width="66" height="40" as="geometry" />
        </mxCell>
        <mxCell id="pv3OxFPJGP5YhFgGYeKH-6" value="&lt;font style=&quot;font-size: 28px;&quot;&gt;docker&lt;/font&gt;" style="text;html=1;strokeColor=#d79b00;fillColor=#ffe6cc;align=center;verticalAlign=middle;whiteSpace=wrap;rounded=0;" vertex="1" parent="pv3OxFPJGP5YhFgGYeKH-1">
          <mxGeometry y="280" width="100" height="40" as="geometry" />
        </mxCell>
        <mxCell id="pv3OxFPJGP5YhFgGYeKH-7" value="&lt;font style=&quot;font-size: 28px;&quot;&gt;hcp4715&lt;/font&gt;" style="text;html=1;strokeColor=#6c8ebf;fillColor=#7EA6E0;align=center;verticalAlign=middle;whiteSpace=wrap;rounded=0;fillStyle=auto;" vertex="1" parent="pv3OxFPJGP5YhFgGYeKH-1">
          <mxGeometry x="168" y="280" width="112" height="40" as="geometry" />
        </mxCell>
        <mxCell id="pv3OxFPJGP5YhFgGYeKH-8" value="&lt;font style=&quot;font-size: 28px;&quot;&gt;/dockerHDDM&lt;/font&gt;" style="text;html=1;strokeColor=#6c8ebf;fillColor=#A9C4EB;align=center;verticalAlign=middle;whiteSpace=wrap;rounded=0;" vertex="1" parent="pv3OxFPJGP5YhFgGYeKH-1">
          <mxGeometry x="281" y="280" width="179" height="40" as="geometry" />
        </mxCell>
        <mxCell id="pv3OxFPJGP5YhFgGYeKH-9" value="&lt;font style=&quot;font-size: 28px;&quot;&gt;:latest&lt;/font&gt;" style="text;html=1;strokeColor=#6c8ebf;fillColor=#D4E1F5;align=center;verticalAlign=middle;whiteSpace=wrap;rounded=0;" vertex="1" parent="pv3OxFPJGP5YhFgGYeKH-1">
          <mxGeometry x="460" y="280" width="80" height="40" as="geometry" />
        </mxCell>
        <mxCell id="pv3OxFPJGP5YhFgGYeKH-10" style="edgeStyle=orthogonalEdgeStyle;rounded=0;orthogonalLoop=1;jettySize=auto;html=1;exitX=0.5;exitY=0;exitDx=0;exitDy=0;entryX=-0.001;entryY=0.363;entryDx=0;entryDy=0;entryPerimeter=0;endArrow=none;endFill=0;strokeWidth=2;fillColor=#ffe6cc;strokeColor=#d79b00;" edge="1" parent="pv3OxFPJGP5YhFgGYeKH-1" source="pv3OxFPJGP5YhFgGYeKH-6" target="pv3OxFPJGP5YhFgGYeKH-12">
          <mxGeometry relative="1" as="geometry" />
        </mxCell>
        <mxCell id="pv3OxFPJGP5YhFgGYeKH-11" style="edgeStyle=orthogonalEdgeStyle;rounded=0;orthogonalLoop=1;jettySize=auto;html=1;entryX=0;entryY=0.403;entryDx=0;entryDy=0;endArrow=none;endFill=0;strokeWidth=2;fillColor=#d5e8d4;strokeColor=#82b366;exitX=0.5;exitY=0;exitDx=0;exitDy=0;entryPerimeter=0;" edge="1" parent="pv3OxFPJGP5YhFgGYeKH-1" source="pv3OxFPJGP5YhFgGYeKH-5" target="pv3OxFPJGP5YhFgGYeKH-13">
          <mxGeometry relative="1" as="geometry">
            <mxPoint x="150" y="270" as="sourcePoint" />
            <mxPoint x="470" y="28" as="targetPoint" />
          </mxGeometry>
        </mxCell>
        <mxCell id="pv3OxFPJGP5YhFgGYeKH-12" value="&lt;div style=&quot;font-size: 26px;&quot;&gt;&lt;span style=&quot;font-size: 26px; font-family: &amp;quot;Times New Roman&amp;quot;; color: rgb(180, 95, 6);&quot;&gt;Using docker to execute this command&lt;/span&gt;&lt;/div&gt;" style="text;whiteSpace=wrap;html=1;strokeWidth=3;fontSize=26;" vertex="1" parent="pv3OxFPJGP5YhFgGYeKH-1">
          <mxGeometry x="547" width="456.02500000000003" height="50" as="geometry" />
        </mxCell>
        <mxCell id="pv3OxFPJGP5YhFgGYeKH-13" value="&lt;div style=&quot;font-size: 26px;&quot;&gt;&lt;span style=&quot;font-size: 26px; font-family: &amp;quot;Times New Roman&amp;quot;; color: rgb(56, 118, 29);&quot;&gt;Pull/download an image from docker hub&#xa;&lt;/span&gt;&lt;/div&gt;" style="text;whiteSpace=wrap;html=1;strokeWidth=3;fontSize=26;" vertex="1" parent="pv3OxFPJGP5YhFgGYeKH-1">
          <mxGeometry x="547" y="50" width="493" height="50" as="geometry" />
        </mxCell>
        <mxCell id="pv3OxFPJGP5YhFgGYeKH-14" value="&lt;div style=&quot;font-size: 26px;&quot;&gt;&lt;/div&gt;&lt;font face=&quot;Times New Roman&quot; color=&quot;#1155cc&quot; style=&quot;font-size: 26px;&quot;&gt;&lt;span style=&quot;font-size: 26px;&quot;&gt;Image&#39;s name&lt;br style=&quot;font-size: 26px;&quot;&gt;&lt;/span&gt;&lt;/font&gt;" style="text;whiteSpace=wrap;html=1;strokeWidth=3;fontSize=26;" vertex="1" parent="pv3OxFPJGP5YhFgGYeKH-1">
          <mxGeometry x="547" y="150" width="172.55" height="50" as="geometry" />
        </mxCell>
        <mxCell id="pv3OxFPJGP5YhFgGYeKH-15" value="&lt;div style=&quot;font-size: 26px;&quot;&gt;&lt;/div&gt;&lt;font face=&quot;Times New Roman&quot; color=&quot;#3c78d8&quot; style=&quot;font-size: 26px;&quot;&gt;&lt;span style=&quot;font-size: 26px;&quot;&gt;Handle of a tag of the image&lt;br style=&quot;font-size: 26px;&quot;&gt;&lt;/span&gt;&lt;/font&gt;" style="text;whiteSpace=wrap;html=1;strokeWidth=3;fontSize=26;" vertex="1" parent="pv3OxFPJGP5YhFgGYeKH-1">
          <mxGeometry x="547" y="210" width="332.775" height="50" as="geometry" />
        </mxCell>
        <mxCell id="pv3OxFPJGP5YhFgGYeKH-16" value="&lt;div style=&quot;font-size: 26px;&quot;&gt;&lt;/div&gt;&lt;font face=&quot;Times New Roman&quot; color=&quot;#0b5394&quot; style=&quot;font-size: 26px;&quot;&gt;&lt;span style=&quot;font-size: 26px;&quot;&gt;Docker hub account that maintain the image&lt;/span&gt;&lt;/font&gt;" style="text;whiteSpace=wrap;html=1;strokeWidth=3;fontSize=26;" vertex="1" parent="pv3OxFPJGP5YhFgGYeKH-1">
          <mxGeometry x="547" y="100" width="480.675" height="50" as="geometry" />
        </mxCell>
        <mxCell id="pv3OxFPJGP5YhFgGYeKH-17" value="&lt;font style=&quot;font-size: 40px;&quot;&gt;A&lt;/font&gt;" style="text;html=1;strokeColor=none;fillColor=none;align=center;verticalAlign=middle;whiteSpace=wrap;rounded=0;" vertex="1" parent="1">
          <mxGeometry x="199" y="-1160" width="60" height="30" as="geometry" />
        </mxCell>
        <mxCell id="pv3OxFPJGP5YhFgGYeKH-18" value="&lt;font style=&quot;font-size: 40px;&quot;&gt;B&lt;/font&gt;" style="text;html=1;strokeColor=none;fillColor=none;align=center;verticalAlign=middle;whiteSpace=wrap;rounded=0;" vertex="1" parent="1">
          <mxGeometry x="199" y="-794" width="60" height="30" as="geometry" />
        </mxCell>
        <mxCell id="pv3OxFPJGP5YhFgGYeKH-19" value="" style="group" vertex="1" connectable="0" parent="1">
          <mxGeometry x="241" y="-741" width="1116" height="587" as="geometry" />
        </mxCell>
        <mxCell id="pv3OxFPJGP5YhFgGYeKH-20" value="&lt;font style=&quot;font-size: 28px;&quot;&gt;run&lt;/font&gt;" style="text;html=1;strokeColor=#82b366;fillColor=#d5e8d4;align=center;verticalAlign=middle;whiteSpace=wrap;rounded=0;" vertex="1" parent="pv3OxFPJGP5YhFgGYeKH-19">
          <mxGeometry x="101" y="269" width="60" height="40" as="geometry" />
        </mxCell>
        <mxCell id="pv3OxFPJGP5YhFgGYeKH-21" value="&lt;font style=&quot;font-size: 28px;&quot;&gt;docker&lt;/font&gt;" style="text;html=1;strokeColor=#d79b00;fillColor=#ffe6cc;align=center;verticalAlign=middle;whiteSpace=wrap;rounded=0;" vertex="1" parent="pv3OxFPJGP5YhFgGYeKH-19">
          <mxGeometry y="269" width="100" height="40" as="geometry" />
        </mxCell>
        <mxCell id="pv3OxFPJGP5YhFgGYeKH-22" value="&lt;font style=&quot;font-size: 28px;&quot;&gt;hcp4715/dockerHDDM:latest&lt;/font&gt;" style="text;html=1;strokeColor=#6c8ebf;fillColor=#7EA6E0;align=center;verticalAlign=middle;whiteSpace=wrap;rounded=0;fillStyle=auto;" vertex="1" parent="pv3OxFPJGP5YhFgGYeKH-19">
          <mxGeometry x="264" y="310" width="366" height="40" as="geometry" />
        </mxCell>
        <mxCell id="pv3OxFPJGP5YhFgGYeKH-23" value="&lt;font style=&quot;font-size: 28px;&quot;&gt;jupyter notebook&lt;/font&gt;" style="text;html=1;strokeColor=#9673a6;fillColor=#e1d5e7;align=center;verticalAlign=middle;whiteSpace=wrap;rounded=0;" vertex="1" parent="pv3OxFPJGP5YhFgGYeKH-19">
          <mxGeometry x="630" y="310" width="222" height="40" as="geometry" />
        </mxCell>
        <mxCell id="pv3OxFPJGP5YhFgGYeKH-24" value="&lt;font style=&quot;font-size: 28px;&quot;&gt;\&lt;/font&gt;" style="text;html=1;strokeColor=#314354;fillColor=#647687;align=center;verticalAlign=middle;whiteSpace=wrap;rounded=0;fontColor=#ffffff;" vertex="1" parent="pv3OxFPJGP5YhFgGYeKH-19">
          <mxGeometry x="740" y="269" width="29" height="40" as="geometry" />
        </mxCell>
        <mxCell id="pv3OxFPJGP5YhFgGYeKH-25" value="&lt;div style=&quot;font-size: 26px;&quot;&gt;&lt;/div&gt;&lt;font face=&quot;Times New Roman&quot; color=&quot;#38761d&quot; style=&quot;font-size: 26px;&quot;&gt;&lt;span style=&quot;font-size: 26px;&quot;&gt;Run a container&lt;br style=&quot;font-size: 26px;&quot;&gt;&lt;/span&gt;&lt;/font&gt;" style="text;whiteSpace=wrap;html=1;fontSize=26;align=left;horizontal=1;verticalAlign=middle;" vertex="1" parent="pv3OxFPJGP5YhFgGYeKH-19">
          <mxGeometry x="776" width="194" height="34" as="geometry" />
        </mxCell>
        <mxCell id="pv3OxFPJGP5YhFgGYeKH-26" style="edgeStyle=orthogonalEdgeStyle;rounded=0;orthogonalLoop=1;jettySize=auto;html=1;entryX=0;entryY=0.5;entryDx=0;entryDy=0;endArrow=none;endFill=0;strokeWidth=2;fillColor=#d5e8d4;strokeColor=#82b366;exitX=0.5;exitY=0;exitDx=0;exitDy=0;" edge="1" parent="pv3OxFPJGP5YhFgGYeKH-19" source="pv3OxFPJGP5YhFgGYeKH-20" target="pv3OxFPJGP5YhFgGYeKH-25">
          <mxGeometry relative="1" as="geometry">
            <mxPoint x="151" y="259" as="sourcePoint" />
            <mxPoint x="471" y="17" as="targetPoint" />
          </mxGeometry>
        </mxCell>
        <mxCell id="pv3OxFPJGP5YhFgGYeKH-27" value="&lt;font style=&quot;font-size: 28px;&quot;&gt;-it&amp;nbsp; --rm&lt;/font&gt;" style="text;html=1;strokeColor=#b85450;fillColor=#F19C99;align=center;verticalAlign=middle;whiteSpace=wrap;rounded=0;" vertex="1" parent="pv3OxFPJGP5YhFgGYeKH-19">
          <mxGeometry x="162" y="310" width="101" height="40" as="geometry" />
        </mxCell>
        <mxCell id="pv3OxFPJGP5YhFgGYeKH-28" value="" style="group" vertex="1" connectable="0" parent="pv3OxFPJGP5YhFgGYeKH-19">
          <mxGeometry x="547" y="269" width="192" height="40" as="geometry" />
        </mxCell>
        <mxCell id="pv3OxFPJGP5YhFgGYeKH-29" value="&lt;font style=&quot;font-size: 28px;&quot;&gt;8888:8888&lt;/font&gt;" style="text;html=1;strokeColor=#b85450;fillColor=#f8cecc;align=center;verticalAlign=middle;whiteSpace=wrap;rounded=0;" vertex="1" parent="pv3OxFPJGP5YhFgGYeKH-28">
          <mxGeometry x="40" width="152" height="40" as="geometry" />
        </mxCell>
        <mxCell id="pv3OxFPJGP5YhFgGYeKH-30" value="&lt;font style=&quot;font-size: 28px;&quot;&gt;-p&lt;/font&gt;" style="text;html=1;strokeColor=#B85450;fillColor=#F19C99;align=center;verticalAlign=middle;whiteSpace=wrap;rounded=0;" vertex="1" parent="pv3OxFPJGP5YhFgGYeKH-28">
          <mxGeometry width="40" height="40" as="geometry" />
        </mxCell>
        <mxCell id="pv3OxFPJGP5YhFgGYeKH-31" value="" style="group" vertex="1" connectable="0" parent="pv3OxFPJGP5YhFgGYeKH-19">
          <mxGeometry x="162" y="269" width="384" height="40" as="geometry" />
        </mxCell>
        <mxCell id="pv3OxFPJGP5YhFgGYeKH-32" value="&lt;font style=&quot;font-size: 28px;&quot;&gt;$(pwd):/home/jovyan/work&lt;/font&gt;" style="text;html=1;strokeColor=#B85450;fillColor=#F8CECC;align=center;verticalAlign=middle;whiteSpace=wrap;rounded=0;" vertex="1" parent="pv3OxFPJGP5YhFgGYeKH-31">
          <mxGeometry x="39.389999999999986" width="344.61" height="40" as="geometry" />
        </mxCell>
        <mxCell id="pv3OxFPJGP5YhFgGYeKH-33" value="&lt;font style=&quot;font-size: 28px;&quot;&gt;-v&lt;/font&gt;" style="text;html=1;strokeColor=#B85450;fillColor=#F19C99;align=center;verticalAlign=middle;whiteSpace=wrap;rounded=0;" vertex="1" parent="pv3OxFPJGP5YhFgGYeKH-31">
          <mxGeometry width="39.39240506329114" height="40" as="geometry" />
        </mxCell>
        <mxCell id="pv3OxFPJGP5YhFgGYeKH-34" value="&lt;div style=&quot;font-size: 26px;&quot;&gt;&lt;/div&gt;&lt;font face=&quot;Times New Roman&quot; style=&quot;font-size: 26px;&quot;&gt;&lt;span style=&quot;font-size: 26px;&quot;&gt;&lt;font color=&quot;#ea6b66&quot; style=&quot;font-size: 26px;&quot;&gt;Mount a volume, &lt;br style=&quot;font-size: 26px;&quot;&gt;localPath:containerPaht&lt;/font&gt;&lt;br style=&quot;font-size: 26px;&quot;&gt;&lt;/span&gt;&lt;/font&gt;" style="text;html=1;fontSize=26;whiteSpace=wrap;verticalAlign=middle;" vertex="1" parent="pv3OxFPJGP5YhFgGYeKH-19">
          <mxGeometry x="776" y="42" width="280" height="60" as="geometry" />
        </mxCell>
        <mxCell id="pv3OxFPJGP5YhFgGYeKH-35" style="edgeStyle=orthogonalEdgeStyle;rounded=0;orthogonalLoop=1;jettySize=auto;html=1;entryX=0;entryY=0.5;entryDx=0;entryDy=0;exitX=0.5;exitY=0;exitDx=0;exitDy=0;strokeWidth=2;endArrow=none;endFill=0;strokeColor=#F19C99;" edge="1" parent="pv3OxFPJGP5YhFgGYeKH-19" source="pv3OxFPJGP5YhFgGYeKH-32" target="pv3OxFPJGP5YhFgGYeKH-34">
          <mxGeometry relative="1" as="geometry">
            <mxPoint x="765" y="279" as="sourcePoint" />
            <mxPoint x="811" y="185" as="targetPoint" />
          </mxGeometry>
        </mxCell>
        <mxCell id="pv3OxFPJGP5YhFgGYeKH-36" value="&lt;div style=&quot;font-size: 26px;&quot;&gt;&lt;/div&gt;&lt;font face=&quot;Times New Roman&quot; style=&quot;font-size: 26px;&quot;&gt;&lt;span style=&quot;font-size: 26px;&quot;&gt;&lt;font color=&quot;#ea6b66&quot; style=&quot;font-size: 26px;&quot;&gt;Map container port,&amp;nbsp;&lt;br style=&quot;font-size: 26px;&quot;&gt;hostPost:containerPort&lt;/font&gt;&lt;br style=&quot;font-size: 26px;&quot;&gt;&lt;/span&gt;&lt;/font&gt;" style="text;html=1;fontSize=26;whiteSpace=wrap;verticalAlign=middle;" vertex="1" parent="pv3OxFPJGP5YhFgGYeKH-19">
          <mxGeometry x="776" y="115" width="280" height="61" as="geometry" />
        </mxCell>
        <mxCell id="pv3OxFPJGP5YhFgGYeKH-37" style="edgeStyle=orthogonalEdgeStyle;rounded=0;orthogonalLoop=1;jettySize=auto;html=1;entryX=0;entryY=0.5;entryDx=0;entryDy=0;strokeWidth=2;endArrow=none;endFill=0;strokeColor=#F19C99;exitX=0.39;exitY=0.004;exitDx=0;exitDy=0;exitPerimeter=0;" edge="1" parent="pv3OxFPJGP5YhFgGYeKH-19" source="pv3OxFPJGP5YhFgGYeKH-29" target="pv3OxFPJGP5YhFgGYeKH-36">
          <mxGeometry relative="1" as="geometry">
            <mxPoint x="651" y="219" as="sourcePoint" />
            <mxPoint x="811" y="34" as="targetPoint" />
          </mxGeometry>
        </mxCell>
        <mxCell id="pv3OxFPJGP5YhFgGYeKH-38" value="&lt;div style=&quot;font-size: 26px;&quot;&gt;&lt;/div&gt;&lt;span style=&quot;background-color: initial; font-size: 26px;&quot;&gt;&lt;font color=&quot;#999999&quot; face=&quot;Times New Roman&quot; style=&quot;font-size: 26px;&quot;&gt;Continue the command in a new line*&lt;/font&gt;&lt;/span&gt;&lt;font face=&quot;Times New Roman&quot; color=&quot;#38761d&quot; style=&quot;font-size: 26px;&quot;&gt;&lt;span style=&quot;font-size: 26px;&quot;&gt;&lt;br style=&quot;font-size: 26px;&quot;&gt;&lt;/span&gt;&lt;/font&gt;" style="text;html=1;fontSize=26;whiteSpace=wrap;verticalAlign=middle;" vertex="1" parent="pv3OxFPJGP5YhFgGYeKH-19">
          <mxGeometry x="776" y="185" width="260" height="63" as="geometry" />
        </mxCell>
        <mxCell id="pv3OxFPJGP5YhFgGYeKH-39" style="edgeStyle=orthogonalEdgeStyle;rounded=0;orthogonalLoop=1;jettySize=auto;html=1;entryX=0;entryY=0.5;entryDx=0;entryDy=0;exitX=0.5;exitY=0;exitDx=0;exitDy=0;strokeWidth=2;endArrow=none;endFill=0;strokeColor=#666666;" edge="1" parent="pv3OxFPJGP5YhFgGYeKH-19" source="pv3OxFPJGP5YhFgGYeKH-24" target="pv3OxFPJGP5YhFgGYeKH-38">
          <mxGeometry relative="1" as="geometry" />
        </mxCell>
        <mxCell id="pv3OxFPJGP5YhFgGYeKH-40" value="&lt;div style=&quot;font-size: 26px;&quot;&gt;&lt;/div&gt;&lt;span style=&quot;background-color: initial; font-size: 26px;&quot;&gt;&lt;font color=&quot;#ea6b66&quot; face=&quot;Times New Roman&quot; style=&quot;font-size: 26px;&quot;&gt;Run container interactively&lt;/font&gt;&lt;/span&gt;&lt;font face=&quot;Times New Roman&quot; color=&quot;#ea6b66&quot;&gt;&lt;div style=&quot;&quot;&gt;Clean up containers and delete files on container exit&lt;/div&gt;&lt;/font&gt;" style="text;html=1;fontSize=26;whiteSpace=wrap;verticalAlign=middle;" vertex="1" parent="pv3OxFPJGP5YhFgGYeKH-19">
          <mxGeometry x="776" y="487" width="315" height="100" as="geometry" />
        </mxCell>
        <mxCell id="pv3OxFPJGP5YhFgGYeKH-41" style="edgeStyle=orthogonalEdgeStyle;rounded=0;orthogonalLoop=1;jettySize=auto;html=1;entryX=0;entryY=0.5;entryDx=0;entryDy=0;strokeWidth=2;endArrow=none;endFill=0;strokeColor=#F19C99;exitX=0.5;exitY=1;exitDx=0;exitDy=0;" edge="1" parent="pv3OxFPJGP5YhFgGYeKH-19" source="pv3OxFPJGP5YhFgGYeKH-27" target="pv3OxFPJGP5YhFgGYeKH-40">
          <mxGeometry relative="1" as="geometry">
            <mxPoint x="656" y="278" as="sourcePoint" />
            <mxPoint x="811" y="114" as="targetPoint" />
          </mxGeometry>
        </mxCell>
        <mxCell id="pv3OxFPJGP5YhFgGYeKH-42" value="&lt;div style=&quot;font-size: 26px;&quot;&gt;&lt;/div&gt;&lt;span style=&quot;background-color: initial; font-size: 26px;&quot;&gt;&lt;font color=&quot;#0066cc&quot; face=&quot;Times New Roman&quot; style=&quot;font-size: 26px;&quot;&gt;The docker image (and its tag) to run the container&lt;/font&gt;&lt;/span&gt;&lt;font face=&quot;Times New Roman&quot; color=&quot;#38761d&quot; style=&quot;font-size: 26px;&quot;&gt;&lt;span style=&quot;font-size: 26px;&quot;&gt;&lt;br style=&quot;font-size: 26px;&quot;&gt;&lt;/span&gt;&lt;/font&gt;" style="text;html=1;fontSize=26;whiteSpace=wrap;verticalAlign=middle;" vertex="1" parent="pv3OxFPJGP5YhFgGYeKH-19">
          <mxGeometry x="776" y="414" width="340" height="67" as="geometry" />
        </mxCell>
        <mxCell id="pv3OxFPJGP5YhFgGYeKH-43" style="edgeStyle=orthogonalEdgeStyle;rounded=0;orthogonalLoop=1;jettySize=auto;html=1;entryX=0;entryY=0.5;entryDx=0;entryDy=0;strokeWidth=2;endArrow=none;endFill=0;strokeColor=#A9C4EB;exitX=0.372;exitY=1.006;exitDx=0;exitDy=0;exitPerimeter=0;" edge="1" parent="pv3OxFPJGP5YhFgGYeKH-19" source="pv3OxFPJGP5YhFgGYeKH-22" target="pv3OxFPJGP5YhFgGYeKH-42">
          <mxGeometry relative="1" as="geometry">
            <mxPoint x="226" y="360" as="sourcePoint" />
            <mxPoint x="811" y="624" as="targetPoint" />
          </mxGeometry>
        </mxCell>
        <mxCell id="pv3OxFPJGP5YhFgGYeKH-44" value="&lt;div style=&quot;font-size: 26px;&quot;&gt;&lt;/div&gt;&lt;span style=&quot;background-color: initial; font-size: 26px;&quot;&gt;&lt;font color=&quot;#a680b8&quot; face=&quot;Times New Roman&quot; style=&quot;font-size: 26px;&quot;&gt;Open jupyter notebook&lt;/font&gt;&lt;/span&gt;&lt;font face=&quot;Times New Roman&quot; color=&quot;#38761d&quot; style=&quot;font-size: 26px;&quot;&gt;&lt;span style=&quot;font-size: 26px;&quot;&gt;&lt;br style=&quot;font-size: 26px;&quot;&gt;&lt;/span&gt;&lt;/font&gt;" style="text;whiteSpace=wrap;html=1;fontSize=26;verticalAlign=middle;" vertex="1" parent="pv3OxFPJGP5YhFgGYeKH-19">
          <mxGeometry x="776" y="371" width="263" height="32" as="geometry" />
        </mxCell>
        <mxCell id="pv3OxFPJGP5YhFgGYeKH-45" style="edgeStyle=orthogonalEdgeStyle;rounded=0;orthogonalLoop=1;jettySize=auto;html=1;entryX=0;entryY=0.5;entryDx=0;entryDy=0;strokeWidth=2;endArrow=none;endFill=0;strokeColor=#A680B8;exitX=0.447;exitY=0.998;exitDx=0;exitDy=0;exitPerimeter=0;" edge="1" parent="pv3OxFPJGP5YhFgGYeKH-19" source="pv3OxFPJGP5YhFgGYeKH-23" target="pv3OxFPJGP5YhFgGYeKH-44">
          <mxGeometry relative="1" as="geometry">
            <mxPoint x="418" y="360" as="sourcePoint" />
            <mxPoint x="811" y="514" as="targetPoint" />
          </mxGeometry>
        </mxCell>
        <mxCell id="pv3OxFPJGP5YhFgGYeKH-46" style="edgeStyle=orthogonalEdgeStyle;rounded=0;orthogonalLoop=1;jettySize=auto;html=1;exitX=0.5;exitY=1;exitDx=0;exitDy=0;" edge="1" parent="pv3OxFPJGP5YhFgGYeKH-19" source="pv3OxFPJGP5YhFgGYeKH-25" target="pv3OxFPJGP5YhFgGYeKH-25">
          <mxGeometry relative="1" as="geometry" />
        </mxCell>
      </root>
    </mxGraphModel>
  </diagram>
</mxfile>
